Coordinates
version=1
nRows=14
nColumns=36
inDegrees=yes

Units are S.I. units (second, meters, Newtons, ...)
If the header above contains a line with 'inDegrees', this indicates whether rotational values are in degrees (yes) or radians (no).

endheader
time	pelvis_tilt	pelvis_list	pelvis_rotation	pelvis_tx	pelvis_ty	pelvis_tz	hip_flexion_r	hip_adduction_r	hip_rotation_r	knee_angle_r	knee_angle_r_beta	ankle_angle_r	subtalar_angle_r	mtp_angle_r	hip_flexion_l	hip_adduction_l	hip_rotation_l	knee_angle_l	knee_angle_l_beta	ankle_angle_l	subtalar_angle_l	mtp_angle_l	lumbar_extension	lumbar_bending	lumbar_rotation	arm_flex_r	arm_add_r	arm_rot_r	elbow_flex_r	pro_sup_r	arm_flex_l	arm_add_l	arm_rot_l	elbow_flex_l	pro_sup_l
      0.00000000	      4.65928481	      1.09775639	      0.37853273	     -0.84858321	      1.27481998	     -0.11047691	     -6.46355653	      0.55448584	      2.70238511	     10.10149747	      0.17630439	      4.72510334	    -13.40514372	     -5.66635548	     -7.08746593	      1.89945074	      0.19661290	      7.38283504	      0.12885478	      7.92144125	     -7.52535976	     -5.66635548	    -15.78766830	      1.01887055	     -2.35525780	     12.85396959	     -8.10725804	     28.09002206	     24.82787012	     69.68913077	      7.99351021	     -7.79799512	     21.91095738	     27.47542027	     64.43334806
      0.00416670	      3.05616086	      1.11017997	      0.70834027	     -0.84793022	      1.26768952	     -0.11034128	     -5.21279338	      0.98738019	      4.27898283	      9.27075610	      0.16180522	      6.52785133	    -11.20420682	     -5.82333264	     -5.24318294	      2.23098971	      1.43473613	      7.30199221	      0.12744381	      7.22555451	     -7.78288472	     -5.82333264	    -12.93264450	      1.20819803	     -2.41572450	     12.27499728	     -7.95364037	     27.39102505	     24.31942613	     70.38383662	      7.65571283	     -7.58915459	     22.64820914	     27.26582180	     64.87063147
      0.00833330	      2.25427095	      1.45568813	      0.63204321	     -0.84626675	      1.26963352	     -0.11032192	     -4.80501784	      0.68495963	      3.73408085	      8.20399594	      0.14318674	      6.68591103	    -10.79336887	     -6.07865996	     -4.48357328	      2.70442630	      1.39641907	      7.33751410	      0.12806378	      7.19571310	     -7.23807397	     -6.07865996	    -11.89450280	      0.51805316	     -2.31490077	     11.74716598	     -7.46774452	     26.20646841	     24.58369681	     69.46558152	      7.72061277	     -7.75756142	     22.30437791	     27.27847827	     64.44963339
      0.01250000	      2.50924698	      1.70457518	      0.56767594	     -0.84638190	      1.26902390	     -0.11055168	     -5.20818001	      0.34457964	      3.84684575	      7.84973103	      0.13700365	      7.15486042	    -10.55413077	     -6.35085090	     -5.30432177	      3.07855046	      1.73805125	      6.50752402	      0.11357772	      6.99395236	     -7.49887115	     -6.35085090	    -12.23325118	     -0.01403824	     -2.09478015	     11.33778861	     -6.98765517	     24.21297514	     24.64332613	     68.41176831	      7.97808402	     -7.73805254	     21.61429444	     26.96337955	     64.00634900
      0.01666670	      2.54285221	      1.80544763	      0.43829486	     -0.84686702	      1.26805461	     -0.10930734	     -5.30563714	      0.27524681	      4.18165713	      7.69016774	      0.13421875	      7.19880862	    -10.97791231	     -6.87099734	     -5.57584429	      3.26380124	      2.48103399	      6.04373544	      0.10548308	      6.82658362	     -8.18090477	     -6.87099734	    -12.51249628	     -0.24153278	     -1.22297488	     10.24596256	     -6.39647821	     16.42717524	     25.76000556	     81.06426907	      8.46804699	     -7.49670397	     20.52902843	     26.61122674	     70.44207309
      0.02083330	      2.70904408	      1.88061387	      0.34161627	     -0.84752227	      1.26788351	     -0.10887867	     -5.47799534	      0.21299708	      4.42220772	      7.58488494	      0.13238122	      7.41086307	    -11.11529920	     -6.99373506	     -5.83863894	      3.37058272	      2.80994826	      5.77073663	      0.10071835	      7.03696068	     -8.34831535	     -6.99373506	    -12.82277074	     -0.39473120	     -0.93409140	     10.21166042	     -6.29810744	     16.26671684	     25.96992840	     79.06993876	      8.64911406	     -7.40088783	     20.03490275	     26.66385417	     69.31247210
      0.02500000	      2.68337901	      1.96385805	      0.28566970	     -0.84634750	      1.27256156	     -0.10960022	     -5.49710286	      0.08622653	      4.35804405	      7.46468576	      0.13028334	      7.34491922	    -11.19132520	     -6.99461961	     -5.82320115	      3.47853205	      2.88887941	      5.71395958	      0.09972741	      6.99949286	     -8.35916098	     -6.99461961	    -12.82689580	     -0.37851767	     -0.83595508	     10.27613894	     -6.30590441	     16.29579322	     26.00062918	     79.08342622	      8.61556212	     -7.31619106	     20.04623769	     26.67318366	     69.32555113
      0.02916670	      2.80434857	      1.99192497	      0.33385319	     -0.84715398	      1.26781934	     -0.10863460	     -5.76213318	      0.12413053	      4.89572002	      7.14286537	      0.12466652	      6.67868190	    -12.28233515	     -7.06194626	     -6.00264643	      3.52103365	      3.53939834	      5.56804313	      0.09718069	      6.67265792	     -9.23657227	     -7.06194626	    -12.97574441	     -0.41890334	     -0.63921391	     10.32679905	     -6.63626623	     17.91778831	     26.14669034	     78.83423888	      8.82283355	     -7.31698619	     20.41390747	     26.63273655	     69.95957152
      0.03333330	      2.84321647	      2.02817643	      0.40672593	     -0.84664795	      1.26925978	     -0.10949448	     -5.92699149	      0.09728871	      5.02470971	      6.84010109	      0.11938229	      6.27234980	    -12.77000840	     -7.12881566	     -6.03793154	      3.54120956	      3.74579590	      5.57111141	      0.09723424	      6.63200852	     -9.61796522	     -7.12881566	    -13.01779825	     -0.39653922	     -0.49995110	     10.34422674	     -6.89559524	     18.85797094	     26.24907111	     77.84539346	      8.92167794	     -7.26440052	     21.02190872	     26.53051605	     69.93214665
      0.03750000	      2.85013034	      1.98910300	      0.36609037	     -0.84759134	      1.27051466	     -0.10967045	     -5.95327945	      0.10192857	      5.01012870	      6.63475954	      0.11579840	      6.16352449	    -12.73715223	     -7.16184447	     -6.03932278	      3.49094823	      3.91716405	      5.53061696	      0.09652748	      6.77365875	     -9.37372516	     -7.16184447	    -13.07881354	     -0.29748876	     -0.37043279	     10.36101934	     -7.04829214	     19.10342647	     26.32096973	     77.25211171	      8.93874001	     -7.18890076	     21.14867693	     26.53178638	     69.78065351
      0.04166670	      2.80846796	      1.92199087	      0.38701377	     -0.84756845	      1.27194698	     -0.10962575	     -5.96547321	      0.18093416	      5.29031417	      6.37248588	      0.11122086	      5.52994770	    -13.44714904	     -7.21545362	     -5.99560870	      3.40770371	      4.28752609	      5.52431002	      0.09641740	      6.51154052	     -9.76112120	     -7.21545362	    -13.03100260	     -0.16942658	     -0.26920419	     10.41912579	     -7.35934788	     20.31632601	     26.31569318	     76.80460211	      9.03912507	     -7.25345602	     22.17937023	     26.39370444	     70.19600735
      0.04583330	      2.91604290	      1.88535100	      0.44184114	     -0.84678263	      1.27117052	     -0.10928554	     -6.21535589	      0.23233935	      5.11926993	      6.10265058	      0.10651135	      5.27835307	    -13.39440644	     -7.23938549	     -6.13656034	      3.34058637	      4.53938596	      5.47604807	      0.09557507	      6.50501208	     -9.68675768	     -7.23938549	    -13.16978195	     -0.08322204	     -0.26506930	     10.39867132	     -7.47967744	     20.35142646	     26.44503819	     75.92729753	      8.98623290	     -7.22305310	     22.22802597	     26.48179348	     69.79322364
      0.05000000	      2.85189286	      1.85158454	      0.42091303	     -0.84688898	      1.27057102	     -0.10976692	     -6.19767332	      0.28171668	      5.28512059	      5.99432003	      0.10462062	      4.87870893	    -13.96344674	     -7.28198443	     -6.04574181	      3.31349208	      4.80222488	      5.50163042	      0.09602157	      6.37116364	     -9.88069807	     -7.28198443	    -13.02697183	      0.00841238	     -0.24962690	     10.50933962	     -7.72410661	     21.30434267	     26.26218044	     75.79273478	      9.08331799	     -7.31861059	     23.37536094	     26.14915334	     70.44283884
      0.05416670	      2.91970697	      1.82539576	      0.47800997	     -0.84670683	      1.26811211	     -0.11051047	     -6.34387280	      0.32733409	      5.38256098	      5.86589737	      0.10237922	      4.84570221	    -14.01392775	     -7.35719407	     -6.12627459	      3.28270919	      5.01253157	      5.52990937	      0.09651513	      6.43455383	    -10.09179628	     -7.35719407	    -13.13858578	      0.09863910	     -0.21769618	     10.49529946	     -7.96222639	     21.84045857	     26.41170615	     73.81406309	      9.16053640	     -7.44753771	     24.17245596	     26.27400211	     69.68040767
